<?xml version="1.0" encoding="UTF-8"?><svg id="Layer_1" data-name="Layer 1" xmlns="http://www.w3.org/2000/svg" viewBox="0 0 138 47.95"><defs><style>.cls-1{fill:#817da8;}.cls-2{fill:#f68220;}.cls-3{fill:#f4aa40;}</style></defs><title>intellipaat_logo_svg</title><path class="cls-1" d="M285.56,181.18a1.21,1.21,0,0,0,1.56-.62,4.56,4.56,0,0,0,.34-2.81,2.19,2.19,0,0,0-1.17-1.54s-1.22-.83-2.11,0-.7,2.06-.6,3.07A2.35,2.35,0,0,0,285.56,181.18Z" transform="translate(-259.71 -166.51)"/><ellipse class="cls-1" cx="82.91" cy="18.11" rx="2.37" ry="3.02"/><path class="cls-2" d="M280.28,202.47a69.11,69.11,0,0,0,5.18-8.39s.52-1.05.66,0a12,12,0,0,1-.7,4.41c-.49,1.45-1.24,4.16-1.24,4.16s-.56.91.31,1.34,1.15-.75,1.15-.75,4-8.25,5.66-22.16c0,0-.14-12.41-.14-13.16s-.22-1.41-.89-1.39-.83.65-.77,1.5a98.06,98.06,0,0,1-.57,10.43c-.34,1.55-.8,3-1.49,3.41a4.16,4.16,0,0,1-.95.47,8.89,8.89,0,0,1-1.38,1.33,3,3,0,0,1-3.27.69c-1.17-.55-.89-2-.87-2.33l0-.32s.16-.79-.57-.83-.84.28-.86,1-.43,4.75,1.19,5.38a16.42,16.42,0,0,0,3.72.83l-1.2,3.35s-1.63,3.7-2.66,5.48a53,53,0,0,1-4.67,6.65l-.65.69c1,.16,2,.33,2.91.51A21.48,21.48,0,0,0,280.28,202.47Z" transform="translate(-259.71 -166.51)"/><path class="cls-3" d="M273.44,206.13l-1.16,1.13s-.87,1-.22,1.56,1.59-.18,1.59-.18.83-.6,2-1.53l0,0A6.69,6.69,0,0,0,273.44,206.13Z" transform="translate(-259.71 -166.51)"/><path class="cls-1" d="M292.15,210.7a80.78,80.78,0,0,0-11.95-5.44c-.55-.16-1.24-.32-2-.48-.89.89-1.81,1.69-2.59,2.33,2.28,1.58,3.43,2.93,5.4,4.13s4.77,2.69,5.94,2.87,4.55.67,6.13,0S294,211.91,292.15,210.7Z" transform="translate(-259.71 -166.51)"/><path class="cls-1" d="M275.29,204.27c-2.25-.35-4.67-.64-6.51-.85-3.41-.38-6.91-.34-8,0s-1.48,1.07-.75,1.48a8.59,8.59,0,0,0,1.92.32c1.19.08,2.34.24,2.79.75s2.57.56,3.82.14a9.49,9.49,0,0,1,4.84,0C274,205.57,274.69,204.89,275.29,204.27Z" transform="translate(-259.71 -166.51)"/><path class="cls-1" d="M275.29,204.27c-.6.62-1.28,1.3-1.85,1.86a6.69,6.69,0,0,1,2.13,1l0,0c.78-.64,1.7-1.44,2.59-2.33C277.32,204.6,276.32,204.43,275.29,204.27Z" transform="translate(-259.71 -166.51)"/><path class="cls-1" d="M299.49,189.42s-2.42-.32-3.23,1.72h-.43v-1.4H292v14.45h4.36V195s-.27-1.35,1.57-1.35,1.56,1.57,1.56,1.57v9h4.19V192.11S303.43,189.42,299.49,189.42Z" transform="translate(-259.71 -166.51)"/><polygon class="cls-1" points="50.89 19.08 46.9 19.08 47.01 23.45 45.66 23.39 45.66 27.65 46.9 27.55 46.9 37.68 51.38 37.68 51.32 28.08 52.99 28.08 52.99 23.39 50.89 23.39 50.89 19.08"/><path class="cls-1" d="M319.79,200.9c-1.54,0-2.24-1-2-2.91h7.71s.48-5.77-2.48-7.55a6.9,6.9,0,0,0-6.68,0c-.65.38-3.67,2.27-3.35,7.33s3.56,6.9,6.77,6.8,5.2-1.73,5.77-4.91l-4.34,0S321.32,200.9,319.79,200.9Zm0-8.35c1.7,0,2,2.34,2,2.34h-3.94S318.09,192.55,319.79,192.55Z" transform="translate(-259.71 -166.51)"/><rect class="cls-1" x="67.55" y="14.72" width="4.74" height="23.34"/><rect class="cls-1" x="74.07" y="14.72" width="4.74" height="23.34"/><rect class="cls-1" x="80.54" y="23.05" width="4.74" height="15.01"/><path class="cls-2" d="M355.45,183.49h-8.36v21.4h4.8v-7.28h4.2s3.45-1,3.61-4.34S360.68,184.14,355.45,183.49Zm-4,9.41v-5.26c3.72-.49,4,2.37,4,2.37C355.5,194.27,351.46,192.9,351.46,192.9Z" transform="translate(-259.71 -166.51)"/><path class="cls-2" d="M370,191.09c-.06.43-.44,0-.44,0-.37-1.72-2.69-1.72-2.69-1.72-3.94-.32-5.88,4.2-5.93,6s0,7.6,3.72,8.84,4.69-.54,4.85-.81.49,0,.49,0v.81h4.31v-14.5H370A11.47,11.47,0,0,1,370,191.09Zm-2.32,8.78A2.87,2.87,0,1,1,370,197,2.63,2.63,0,0,1,367.63,199.87Z" transform="translate(-259.71 -166.51)"/><path class="cls-2" d="M384.66,191.3c-.05.43-.43.06-.43.06-.38-1.73-2.7-1.73-2.7-1.73-3.93-.32-5.87,4.21-5.92,6s0,7.6,3.71,8.84,4.69-.53,4.86-.8.48,0,.48,0v.8H389V190h-4.31A9.56,9.56,0,0,1,384.66,191.3Zm-2.32,8.78a2.87,2.87,0,1,1,2.38-2.83A2.63,2.63,0,0,1,382.34,200.08Z" transform="translate(-259.71 -166.51)"/><polygon class="cls-2" points="138 23.45 135.9 23.45 135.9 19.14 131.91 19.14 132.02 23.5 130.67 23.45 130.67 27.71 131.91 27.6 131.91 37.73 136.38 37.73 136.33 28.14 138 28.14 138 23.45"/></svg>